# xmcd
#
# Track frame offsets:
#	150
#	16585
#	28257
#
# Disc length: 625 seconds
#
# Revision: 0
# Processed by: cddbd v1.5.2PL0 Copyright (c) Steve Scherf et al.
# Submitted via: audiograbber 1.83.01
#
DISCID=17026f03
DTITLE=Squeeze - This Summer
DYEAR=1995
DGENRE=Pop
TTITLE0=This Summer
TTITLE1=Goodbye Girl (live)
TTITLE2=All The King's Horses
EXTD=
EXTT0=
EXTT1=
EXTT2=
PLAYORDER=
